<svg width="37" height="34" viewBox="0 0 37 34" fill="none" xmlns="http://www.w3.org/2000/svg">
<path d="M11.2356 29.9709C10.5857 29.9699 9.96272 29.7111 9.50328 29.2514C9.04383 28.7918 8.78541 28.1687 8.78467 27.5187C8.78467 27.3737 8.84228 27.2346 8.94484 27.132C9.0474 27.0295 9.1865 26.9719 9.33154 26.9719C9.47658 26.9719 9.61568 27.0295 9.71824 27.132C9.8208 27.2346 9.87842 27.3737 9.87842 27.5187C9.87842 27.7875 9.95811 28.0502 10.1074 28.2737C10.2567 28.4971 10.469 28.6713 10.7173 28.7741C10.9656 28.8769 11.2388 28.9038 11.5024 28.8514C11.7659 28.7989 12.008 28.6695 12.1981 28.4794C12.3881 28.2894 12.5175 28.0472 12.5698 27.7836C12.6222 27.52 12.5953 27.2468 12.4924 26.9986C12.3895 26.7503 12.2153 26.5381 11.9918 26.3888C11.7683 26.2396 11.5056 26.1599 11.2369 26.16C10.7519 26.1599 10.2778 26.0161 9.87458 25.7466C9.47136 25.4771 9.1571 25.0941 8.97155 24.646C8.786 24.1979 8.73748 23.7049 8.83214 23.2292C8.92679 22.7536 9.16036 22.3166 9.50332 21.9737C9.84628 21.6308 10.2832 21.3973 10.7589 21.3027C11.2346 21.2081 11.7276 21.2567 12.1757 21.4423C12.6237 21.6279 13.0067 21.9422 13.2761 22.3455C13.5455 22.7487 13.6894 23.2228 13.6894 23.7078C13.6894 23.8528 13.6317 23.9919 13.5292 24.0945C13.4266 24.1971 13.2875 24.2547 13.1425 24.2547C12.9974 24.2547 12.8583 24.1971 12.7558 24.0945C12.6532 23.9919 12.5956 23.8528 12.5956 23.7078C12.5957 23.4391 12.516 23.1763 12.3668 22.9528C12.2175 22.7294 12.0053 22.5551 11.757 22.4523C11.5088 22.3494 11.2356 22.3224 10.972 22.3748C10.7084 22.4272 10.4662 22.5566 10.2762 22.7466C10.0861 22.9366 9.95669 23.1787 9.90424 23.4423C9.85178 23.7059 9.87867 23.9791 9.9815 24.2274C10.0843 24.4757 10.2585 24.6879 10.4819 24.8372C10.7054 24.9865 10.9681 25.0662 11.2369 25.0662C11.5612 25.0626 11.8831 25.1233 12.1839 25.2449C12.4846 25.3665 12.7582 25.5466 12.9889 25.7746C13.2196 26.0027 13.4027 26.2743 13.5277 26.5737C13.6527 26.873 13.717 27.1942 13.717 27.5186C13.717 27.843 13.6527 28.1642 13.5277 28.4635C13.4027 28.7629 13.2196 29.0344 12.9889 29.2625C12.7582 29.4906 12.4846 29.6707 12.1839 29.7923C11.8831 29.9139 11.5612 29.9746 11.2369 29.9709H11.2356Z" fill="#B6DCEA"/>
<path d="M19.5866 29.9709H17.236C16.7407 29.9703 16.2659 29.7733 15.9158 29.4231C15.5656 29.0729 15.3687 28.5981 15.3682 28.1028V23.1237C15.3687 22.6285 15.5656 22.1537 15.9158 21.8034C16.2659 21.4532 16.7407 21.2562 17.236 21.2556H19.5866C19.7316 21.2556 19.8707 21.3132 19.9733 21.4158C20.0759 21.5184 20.1335 21.6575 20.1335 21.8025C20.1335 21.9475 20.0759 22.0866 19.9733 22.1892C19.8707 22.2917 19.7316 22.3494 19.5866 22.3494H17.236C17.0307 22.3496 16.8339 22.4313 16.6888 22.5765C16.5437 22.7216 16.4621 22.9185 16.4619 23.1237V28.1028C16.4621 28.3081 16.5437 28.5049 16.6888 28.6501C16.8339 28.7953 17.0307 28.8769 17.236 28.8772H19.5866C19.7316 28.8772 19.8707 28.9348 19.9733 29.0374C20.0759 29.1399 20.1335 29.279 20.1335 29.4241C20.1335 29.5691 20.0759 29.7082 19.9733 29.8108C19.8707 29.9133 19.7316 29.9709 19.5866 29.9709Z" fill="#B6DCEA"/>
<path d="M19.5866 26.16H15.915C15.77 26.16 15.6309 26.1024 15.5283 25.9999C15.4258 25.8973 15.3682 25.7582 15.3682 25.6132C15.3682 25.4681 15.4258 25.329 15.5283 25.2265C15.6309 25.1239 15.77 25.0663 15.915 25.0663H19.5866C19.7316 25.0663 19.8707 25.1239 19.9733 25.2265C20.0759 25.329 20.1335 25.4681 20.1335 25.6132C20.1335 25.7582 20.0759 25.8973 19.9733 25.9999C19.8707 26.1024 19.7316 26.16 19.5866 26.16Z" fill="#B6DCEA"/>
<path d="M26.1191 29.9709H23.5075C23.0821 29.9704 22.6743 29.8012 22.3736 29.5004C22.0729 29.1995 21.9038 28.7916 21.9034 28.3663V22.8594C21.9039 22.4341 22.073 22.0263 22.3737 21.7255C22.6744 21.4247 23.0822 21.2555 23.5075 21.255H26.1191C26.5442 21.2558 26.9517 21.4252 27.2522 21.7259C27.5527 22.0266 27.7217 22.4342 27.7222 22.8594V28.3656C27.7219 28.7909 27.553 29.1988 27.2525 29.4997C26.952 29.8006 26.5444 29.9701 26.1191 29.9709ZM23.5075 22.3494C23.3723 22.3495 23.2426 22.4033 23.147 22.4989C23.0513 22.5945 22.9974 22.7241 22.9972 22.8594V28.3656C22.9972 28.501 23.0509 28.6309 23.1466 28.7267C23.2423 28.8225 23.3721 28.8764 23.5075 28.8766H26.1191C26.2545 28.8763 26.3843 28.8224 26.48 28.7266C26.5757 28.6309 26.6295 28.501 26.6297 28.3656V22.8594C26.6295 22.724 26.5757 22.5942 26.48 22.4985C26.3842 22.4028 26.2544 22.3489 26.1191 22.3488L23.5075 22.3494Z" fill="#B6DCEA"/>
<path d="M4.22754 20.4622C4.0825 20.4622 3.9434 20.4046 3.84084 20.302C3.73828 20.1995 3.68066 20.0604 3.68066 19.9153V10.8669C3.68116 10.4603 3.84291 10.0704 4.13044 9.7829C4.41796 9.49538 4.80779 9.33363 5.21441 9.33313H7.60723C8.01385 9.33363 8.40368 9.49538 8.6912 9.7829C8.97873 10.0704 9.14048 10.4603 9.14098 10.8669V17.9513C9.14098 18.0963 9.08336 18.2354 8.9808 18.338C8.87824 18.4405 8.73914 18.4981 8.5941 18.4981C8.44906 18.4981 8.30996 18.4405 8.2074 18.338C8.10484 18.2354 8.04723 18.0963 8.04723 17.9513V10.8669C8.04706 10.7502 8.00065 10.6384 7.91817 10.5559C7.83569 10.4735 7.72387 10.427 7.60723 10.4269H5.21441C5.09777 10.427 4.98595 10.4735 4.90347 10.5559C4.82099 10.6384 4.77458 10.7502 4.77441 10.8669V19.9153C4.77441 20.0604 4.7168 20.1995 4.61424 20.302C4.51168 20.4046 4.37258 20.4622 4.22754 20.4622Z" fill="#B6DCEA"/>
<path d="M12.1204 13.7138C12.0485 13.7138 11.9774 13.6997 11.911 13.6723C11.8447 13.6448 11.7844 13.6045 11.7336 13.5537C11.6828 13.5029 11.6425 13.4426 11.615 13.3763C11.5876 13.3099 11.5734 13.2388 11.5735 13.1669V5.59192C11.5739 5.18525 11.7356 4.79534 12.0231 4.50774C12.3107 4.22015 12.7006 4.05836 13.1072 4.05786H15.5035C15.9102 4.05836 16.3 4.22015 16.5876 4.50774C16.8751 4.79534 17.0368 5.18525 17.0372 5.59192V11.9497C17.0372 12.0948 16.9796 12.2339 16.8771 12.3364C16.7745 12.439 16.6354 12.4966 16.4904 12.4966C16.3453 12.4966 16.2062 12.439 16.1037 12.3364C16.0011 12.2339 15.9435 12.0948 15.9435 11.9497V5.59192C15.9434 5.47522 15.897 5.36333 15.8145 5.28078C15.7321 5.19823 15.6202 5.15178 15.5035 5.15161H13.1072C12.9905 5.15178 12.8787 5.19823 12.7962 5.28078C12.7137 5.36333 12.6673 5.47522 12.6672 5.59192V13.1669C12.6673 13.2388 12.6532 13.3099 12.6257 13.3763C12.5982 13.4426 12.5579 13.5029 12.5072 13.5537C12.4564 13.6045 12.3961 13.6448 12.3297 13.6723C12.2633 13.6997 12.1922 13.7138 12.1204 13.7138Z" fill="#B6DCEA"/>
<path d="M24.3835 15.8525C24.2384 15.8525 24.0993 15.7949 23.9968 15.6923C23.8942 15.5898 23.8366 15.4507 23.8366 15.3056V1.53375C23.8364 1.41711 23.79 1.30529 23.7075 1.22281C23.6251 1.14033 23.5132 1.09392 23.3966 1.09375H21.0035C20.8868 1.09383 20.7749 1.14022 20.6924 1.22271C20.6099 1.30521 20.5636 1.41708 20.5635 1.53375V12.815C20.5635 12.96 20.5059 13.0991 20.4033 13.2017C20.3007 13.3043 20.1616 13.3619 20.0166 13.3619C19.8716 13.3619 19.7325 13.3043 19.6299 13.2017C19.5273 13.0991 19.4697 12.96 19.4697 12.815V1.53375C19.4702 1.12713 19.632 0.7373 19.9195 0.449773C20.207 0.162247 20.5969 0.000496185 21.0035 0H23.396C23.8026 0.000496185 24.1924 0.162247 24.48 0.449773C24.7675 0.7373 24.9292 1.12713 24.9297 1.53375V15.3056C24.9297 15.4506 24.8722 15.5896 24.7698 15.6921C24.6673 15.7946 24.5284 15.8523 24.3835 15.8525Z" fill="#B6DCEA"/>
<path d="M32.2803 20.4663C32.1352 20.4663 31.9961 20.4087 31.8936 20.3061C31.791 20.2036 31.7334 20.0645 31.7334 19.9194V5.59192C31.7333 5.47522 31.6869 5.36333 31.6044 5.28078C31.5219 5.19823 31.4101 5.15178 31.2934 5.15161H28.9006C28.7839 5.15178 28.672 5.19823 28.5895 5.28078C28.507 5.36333 28.4607 5.47522 28.4606 5.59192V16.665C28.4606 16.8101 28.403 16.9492 28.3004 17.0517C28.1978 17.1543 28.0587 17.2119 27.9137 17.2119C27.7687 17.2119 27.6296 17.1543 27.527 17.0517C27.4244 16.9492 27.3668 16.8101 27.3668 16.665V5.59192C27.3672 5.18525 27.5289 4.79534 27.8165 4.50774C28.104 4.22015 28.4939 4.05836 28.9006 4.05786H31.2934C31.7001 4.05836 32.0899 4.22015 32.3775 4.50774C32.665 4.79534 32.8267 5.18525 32.8271 5.59192V19.9194C32.8271 20.0645 32.7695 20.2036 32.667 20.3061C32.5644 20.4087 32.4253 20.4663 32.2803 20.4663Z" fill="#B6DCEA"/>
<path d="M11.5659 18.0365C11.4767 18.0365 11.3889 18.0146 11.3102 17.9729C11.2314 17.9311 11.164 17.8707 11.1139 17.7969C11.0638 17.7232 11.0325 17.6383 11.0227 17.5496C11.0129 17.461 11.025 17.3713 11.0578 17.2884C11.4396 16.3124 12.1077 15.4746 12.9745 14.8854C13.8412 14.2961 14.866 13.9829 15.914 13.9869C16.0591 13.9869 16.1982 14.0445 16.3007 14.147C16.4033 14.2496 16.4609 14.3887 16.4609 14.5337C16.4609 14.6788 16.4033 14.8179 16.3007 14.9204C16.1982 15.023 16.0591 15.0806 15.914 15.0806C15.0856 15.0777 14.2757 15.3255 13.5906 15.7913C12.9055 16.2571 12.3773 16.9192 12.0753 17.6906C12.035 17.7928 11.9649 17.8805 11.874 17.9422C11.7831 18.0039 11.6758 18.0368 11.5659 18.0365Z" fill="#B6DCEA"/>
<path d="M33.4825 26.5357C33.3418 26.5355 33.2065 26.4811 33.1049 26.3838C33.0032 26.2865 32.9429 26.1538 32.9366 26.0132C32.9026 25.1853 32.619 24.3871 32.123 23.7234C31.627 23.0597 30.9419 22.5615 30.1575 22.2944C30.0896 22.271 30.027 22.2345 29.9733 22.1869C29.9195 22.1393 29.8757 22.0816 29.8442 22.0171C29.8128 21.9525 29.7943 21.8824 29.79 21.8108C29.7856 21.7391 29.7954 21.6673 29.8188 21.5994C29.8422 21.5315 29.8787 21.4689 29.9263 21.4152C29.9739 21.3614 30.0316 21.3176 30.0961 21.2861C30.1607 21.2546 30.2308 21.2362 30.3024 21.2318C30.3741 21.2275 30.4459 21.2373 30.5138 21.2607C31.506 21.5983 32.3728 22.2283 33.0002 23.0679C33.6276 23.9074 33.9863 24.9172 34.0291 25.9644C34.0356 26.1093 33.9843 26.2508 33.8865 26.3579C33.7887 26.465 33.6524 26.5288 33.5075 26.5354L33.4825 26.5357Z" fill="#B6DCEA"/>
<path d="M29.1734 33.2813H7.33344C5.38849 33.2813 3.5232 32.5087 2.14791 31.1334C0.772628 29.7581 0 27.8928 0 25.9478C0 24.0029 0.772628 22.1376 2.14791 20.7623C3.5232 19.387 5.38849 18.6144 7.33344 18.6144C7.51031 18.6144 7.69375 18.6225 7.88625 18.6394C8.15196 16.9793 8.89835 15.4334 10.0332 14.1928C11.168 12.9523 12.6415 12.0716 14.2714 11.6594C15.9014 11.2473 17.6164 11.3219 19.2045 11.8739C20.7926 12.426 22.184 13.4313 23.2069 14.7657C23.4231 14.746 23.6216 14.7363 23.815 14.7363C25.1596 14.7406 26.4774 15.1131 27.6253 15.8134C28.7732 16.5137 29.7073 17.5151 30.3262 18.7088C32.1484 18.998 33.7946 19.9635 34.9363 21.4129C36.078 22.8622 36.6313 24.6887 36.4858 26.5279C36.3403 28.3671 35.5067 30.0839 34.1513 31.3357C32.7959 32.5875 31.0184 33.2822 29.1734 33.2813ZM7.33344 19.7082C5.67857 19.7082 4.09148 20.3655 2.92131 21.5357C1.75114 22.7059 1.09375 24.293 1.09375 25.9478C1.09375 27.6027 1.75114 29.1898 2.92131 30.36C4.09148 31.5301 5.67857 32.1875 7.33344 32.1875H29.1734C30.7653 32.1883 32.2972 31.5804 33.4554 30.4885C34.6137 29.3965 35.3106 27.903 35.4035 26.3139C35.4965 24.7248 34.9784 23.1603 33.9553 21.9407C32.9323 20.7212 31.4817 19.9389 29.9006 19.7541C29.8078 19.7434 29.7193 19.709 29.6436 19.6543C29.5679 19.5996 29.5075 19.5263 29.4681 19.4416C28.9653 18.3657 28.167 17.4549 27.1662 16.8154C26.1655 16.176 25.0035 15.8342 23.8159 15.83C23.551 15.8318 23.2865 15.8506 23.0241 15.8863C22.9258 15.8994 22.8259 15.8852 22.7352 15.8454C22.6444 15.8057 22.5663 15.7417 22.5094 15.6607C21.6236 14.4086 20.3755 13.4579 18.9332 12.9364C17.4909 12.4149 15.9234 12.3477 14.4417 12.7437C12.96 13.1398 11.6351 13.9801 10.6453 15.1517C9.65555 16.3233 9.04831 17.7699 8.90531 19.2969C8.89842 19.3711 8.87642 19.4431 8.84068 19.5085C8.80493 19.5739 8.75619 19.6313 8.69745 19.6772C8.63871 19.723 8.57121 19.7564 8.4991 19.7752C8.42698 19.794 8.35179 19.7979 8.27812 19.7866C7.9657 19.7363 7.64988 19.71 7.33344 19.7082Z" fill="#B6DCEA"/>
</svg>
